<svg xmlns="http://www.w3.org/2000/svg">
  <defs>
    <!-- Socials icons start -->
    <symbol id="facebook" viewBox="0 0 23 32">
      <path
        d="M15.235 3.795h2.087V.161C16.962.111 15.724 0 14.282 0c-3.009 0-5.069 1.892-5.069 5.37v3.201h-3.32v4.063h3.32v10.223h4.071V12.635h3.186l.506-4.063h-3.692V5.773c.001-1.174.317-1.978 1.953-1.978z" />
    </symbol>
    <symbol id="instagram" viewBox="0 0 32 32">
      <path
        d="M27.406 6.72c-.053-1.214-.25-2.049-.531-2.773a5.57 5.57 0 0 0-1.322-2.027A5.627 5.627 0 0 0 23.53.603c-.728-.281-1.558-.478-2.773-.531-1.224-.058-1.612-.071-4.715-.071s-3.492.013-4.711.067c-1.214.054-2.049.25-2.773.531a5.57 5.57 0 0 0-2.027 1.322 5.64 5.64 0 0 0-1.317 2.023c-.281.728-.478 1.558-.531 2.773-.058 1.224-.072 1.612-.072 4.715s.013 3.492.067 4.711c.054 1.214.25 2.049.531 2.773.29.768.741 1.456 1.322 2.027a5.627 5.627 0 0 0 2.023 1.317c.728.281 1.558.478 2.773.531 1.219.054 1.607.067 4.711.067s3.492-.013 4.711-.067c1.215-.053 2.049-.25 2.773-.531a5.847 5.847 0 0 0 3.345-3.344c.281-.728.478-1.558.531-2.773.053-1.219.067-1.608.067-4.711s-.005-3.492-.058-4.711zm-2.058 9.332c-.049 1.116-.237 1.719-.393 2.121a3.79 3.79 0 0 1-2.17 2.17c-.402.156-1.009.344-2.121.393-1.206.054-1.567.067-4.617.067s-3.416-.013-4.617-.067c-1.116-.049-1.719-.236-2.121-.393a3.507 3.507 0 0 1-1.313-.853 3.547 3.547 0 0 1-.853-1.313c-.156-.402-.344-1.009-.393-2.121-.054-1.206-.067-1.567-.067-4.617s.013-3.416.067-4.617c.049-1.116.237-1.719.393-2.121.183-.496.473-.947.857-1.313.37-.38.817-.67 1.313-.853.402-.156 1.009-.344 2.121-.393 1.206-.054 1.567-.067 4.617-.067 3.054 0 3.416.013 4.617.067 1.116.049 1.719.237 2.121.393.495.183.947.473 1.313.853.379.371.67.817.853 1.313.156.402.344 1.009.393 2.121.054 1.206.067 1.567.067 4.617s-.013 3.407-.067 4.613z" />
      <path
        d="M16.042 5.559c-3.242 0-5.872 2.63-5.872 5.872s2.63 5.872 5.872 5.872 5.872-2.63 5.872-5.872-2.63-5.872-5.872-5.872zm0 9.681a3.81 3.81 0 1 1 .002-7.62 3.81 3.81 0 0 1-.002 7.62zM23.517 5.327a1.371 1.371 0 1 1-2.742 0 1.371 1.371 0 0 1 2.742 0z" />
    </symbol>
    <symbol id="linkedin" viewBox="0 0 32 32">
      <path
        d="M27.423 22.857v-.001h.006v-8.383c0-4.101-.883-7.26-5.677-7.26-2.305 0-3.851 1.265-4.483 2.464h-.067V7.596h-4.546v15.26h4.733V15.3c0-1.989.377-3.913 2.841-3.913 2.428 0 2.464 2.27 2.464 4.041v7.429h4.729zM4.949 7.597h4.739v15.26H4.949V7.597zM7.316 0C5.801 0 4.571 1.23 4.571 2.745s1.23 2.77 2.745 2.77c1.515 0 2.745-1.255 2.745-2.77S8.831 0 7.316 0z" />
    </symbol>
    <symbol id="twitter" viewBox="0 0 33 32">
      <path
        d="M28.444 4.502c-.882.387-1.821.643-2.8.767a4.836 4.836 0 0 0 2.138-2.686A9.686 9.686 0 0 1 24.7 3.759a4.858 4.858 0 0 0-8.406 3.323 5 5 0 0 0 .113 1.108c-4.04-.197-7.615-2.133-10.016-5.083a4.894 4.894 0 0 0-.665 2.456c0 1.683.867 3.175 2.159 4.039a4.791 4.791 0 0 1-2.196-.599v.053a4.882 4.882 0 0 0 3.893 4.775 4.86 4.86 0 0 1-1.274.16 4.31 4.31 0 0 1-.92-.083c.63 1.925 2.416 3.339 4.541 3.385a9.767 9.767 0 0 1-6.025 2.073c-.399 0-.781-.018-1.163-.067a13.684 13.684 0 0 0 7.455 2.181c8.942 0 13.831-7.407 13.831-13.828 0-.215-.007-.422-.018-.628a9.696 9.696 0 0 0 2.436-2.523z" />
    </symbol>
  </defs>
  <!-- Socials icons end -->
</svg>